<svg xmlns="http://www.w3.org/2000/svg" width="800" height="800" viewBox="0 0 512 512"><defs><radialGradient id="goldCore" cx="50%" cy="50%" r="60%"><stop offset="0%" stop-color="#f5d27a"/><stop offset="40%" stop-color="#d4af37"/><stop offset="70%" stop-color="#a67c1a"/><stop offset="100%" stop-color="#5a430f"/></radialGradient><linearGradient id="edgeLight" x1="0%" x2="100%" y1="0%" y2="100%"><stop offset="0%" stop-color="#fff2b0" stop-opacity=".8"/><stop offset="100%" stop-color="#d4af37" stop-opacity="0"/></linearGradient><linearGradient id="facetDark" x1="0%" x2="100%" y1="0%" y2="100%"><stop offset="0%" stop-color="#8c6b1f"/><stop offset="100%" stop-color="#3e2e0a"/></linearGradient></defs><polygon fill="url(#goldCore)" stroke="#8c6b1f" stroke-width="4" points="256 40 440 150 440 360 256 470 72 360 72 150"/><polygon fill="#d4af37" points="256 40 440 150 256 256" opacity=".85"/><polygon fill="url(#facetDark)" points="440 150 440 360 256 256" opacity=".9"/><polygon fill="#b8962e" points="440 360 256 470 256 256" opacity=".85"/><polygon fill="url(#facetDark)" points="256 470 72 360 256 256" opacity=".95"/><polygon fill="#d4af37" points="72 360 72 150 256 256" opacity=".8"/><polygon fill="#f5d27a" points="72 150 256 40 256 256" opacity=".9"/><line x1="256" x2="256" y1="40" y2="470" stroke="#fff2b0" stroke-width="2" opacity=".4"/></svg>